#!OML:ASF F:\VICON\USERDATA\INSTALL\rory3\rory3.ASF
:FULLY-SPECIFIED
:DEGREES
304
root 3.45996 17.7229 -4.85366 -1.45463 -44.9285 2.89452
lowerback 14.0667 1.62647 1.44064
upperback 4.9198 2.27445 1.23273
thorax -2.68879 1.0824 0.111662
lowerneck -0.847253 -3.41456 -6.49573
upperneck 0.898211 -4.61013 9.10998
head 0.844537 -2.28297 4.0872
rclavicle 2.22639e-014 -1.59028e-015
rhumerus -29.0761 47.3309 -95.9176
rradius 47.3254
rwrist 17.5017
rhand -2.4693 -7.11965
rfingers 7.12502
rthumb 23.2232 -35.7394
lclavicle 2.22639e-014 -1.59028e-015
lhumerus -25.456 -29.8861 90.3223
lradius 99.1316
lwrist 6.7649
lhand -16.9848 35.4461
lfingers 7.12502
lthumb 9.25001 65.2232
rfemur -13.2609 3.92627 17.3334
rtibia 45.9521
rfoot -32.0956 -16.7316
rtoes -5.6818
lfemur -34.4006 -3.82085 -10.4909
ltibia 36.3126
lfoot -16.4524 8.76058
ltoes -12.5547
305
root 3.45482 17.7054 -4.87751 -0.891202 -44.4408 2.04446
lowerback 14.2981 1.30838 2.03156
upperback 4.96587 1.9469 1.51817
thorax -2.75596 0.918781 0.124561
lowerneck -0.877413 -3.29523 -6.61137
upperneck 0.883904 -4.44339 9.00223
head 0.830735 -2.19985 4.07484
rclavicle -9.34288e-014 1.35174e-014
rhumerus -31.4509 48.8503 -98.1889
rradius 45.3225
rwrist 16.5883
rhand -1.20437 -6.15682
rfingers 7.12502
rthumb 24.4363 -34.6183
lclavicle -9.34288e-014 1.35174e-014
lhumerus -26.1444 -29.6096 90.6675
lradius 97.4824
lwrist 5.51332
lhand -16.4969 35.1442
lfingers 7.12502
lthumb 9.72075 64.8999
rfemur -13.2722 3.76154 18.1829
rtibia 46.1837
rfoot -32.2611 -17.1221
rtoes -5.5849
lfemur -34.6725 -3.48067 -10.0594
ltibia 36.8491
lfoot -16.1154 8.22212
ltoes -12.4747
306
root 3.46217 17.6857 -4.89344 -0.560781 -44.1407 1.75517
lowerback 14.3969 0.951352 2.33846
upperback 4.95374 1.53008 1.7692
thorax -2.82415 0.710436 0.2799
lowerneck -0.880189 -2.98226 -7.52095
upperneck 1.05242 -4.02566 9.31262
head 0.881821 -1.9922 4.37644
rclavicle -3.22031e-014 7.95139e-015
rhumerus -33.8649 50.413 -100.338
rradius 43.7614
rwrist 14.9642
rhand 2.00483 -5.07229
rfingers 7.12502
rthumb 27.5092 -33.0827
lclavicle -3.22031e-014 7.95139e-015
lhumerus -26.9403 -28.9087 91.2199
lradius 95.9034
lwrist 4.22961
lhand -16.3948 34.8206
lfingers 7.12502
lthumb 9.81922 64.5717
rfemur -13.5639 3.51461 18.4503
rtibia 46.5085
rfoot -32.5354 -17.0869
rtoes -5.22852
lfemur -35.0457 -3.25841 -10.0203
ltibia 37.3367
lfoot -15.8348 8.00031
ltoes -12.5107
307
root 3.4629 17.6839 -4.91801 -1.41618 -44.4389 2.8777
lowerback 14.9313 0.972418 1.33966
upperback 4.92246 1.4335 1.79458
thorax -3.17222 0.655572 0.877295
lowerneck -0.952055 -2.67489 -8.39469
upperneck 1.48212 -3.63194 9.96801
head 0.93064 -1.78421 4.30871
rclavicle -6.36111e-014 1.43125e-014
rhumerus -35.8455 51.0486 -101.819
rradius 42.7111
rwrist 13.5053
rhand -9.91717 -7.6644
rfingers 7.12502
rthumb 16.0634 -37.0186
lclavicle -6.36111e-014 1.43125e-014
lhumerus -27.6989 -28.2609 91.8247
lradius 94.2867
lwrist 2.84197
lhand -16.2103 34.4613
lfingers 7.12502
lthumb 9.9973 64.2039
rfemur -13.7394 3.55807 17.565
rtibia 46.856
rfoot -32.68 -16.8527
rtoes -5.16108
lfemur -34.8829 -2.78641 -11.061
ltibia 37.7362
lfoot -15.7512 8.12246
ltoes -12.7223
308
root 3.46212 17.6851 -4.94014 -1.55354 -44.3835 3.70367
lowerback 14.9042 1.17792 0.876487
upperback 4.85213 1.6294 1.47593
thorax -3.23726 0.754744 0.770553
lowerneck -1.26254 -2.81881 -7.80826
upperneck 1.54885 -3.81505 9.6059
head 1.10878 -1.87584 4.53975
rclavicle 2.10712e-014 4.77083e-015
rhumerus -35.3038 48.4815 -101.19
rradius 42.9688
rwrist 8.36271
rhand -13.8069 -12.7379
rfingers 7.12502
rthumb 12.3153 -42.3553
lclavicle 2.10712e-014 4.77083e-015
lhumerus -27.9487 -28.9601 91.8931
lradius 92.6362
lwrist 1.66565
lhand -16.1142 33.898
lfingers 7.12502
lthumb 10.09 63.6361
rfemur -14.4391 3.33049 16.8989
rtibia 47.2025
rfoot -32.8349 -16.6888
rtoes -5.08614
lfemur -35.378 -2.43217 -11.8726
ltibia 38.0514
lfoot -15.4175 8.2398
ltoes -12.5653
309
root 3.4621 17.6846 -4.96156 -1.29556 -44.3359 3.83871
lowerback 14.9489 1.19017 0.757449
upperback 4.80309 1.63082 1.46726
thorax -3.31604 0.755551 0.827065
lowerneck -1.41982 -2.82019 -7.79537
upperneck 1.51284 -3.80756 9.67919
head 1.12671 -1.86805 4.56213
rclavicle 3.77691e-014 5.56597e-015
rhumerus -34.4341 45.6739 -99.8834
rradius 43.6478
rwrist 5.78663
rhand -14.899 -15.0398
rfingers 7.12502
rthumb 11.2622 -44.7175
lclavicle 3.77691e-014 5.56597e-015
lhumerus -28.2195 -29.1362 92.136
lradius 91.127
lwrist 0.803326
lhand -15.9861 33.5146
lfingers 7.12502
lthumb 10.2135 63.2467
rfemur -15.0046 3.26998 16.8214
rtibia 47.4806
rfoot -32.9735 -16.6078
rtoes -4.90432
lfemur -35.8057 -2.07045 -12.1007
ltibia 38.3502
lfoot -15.1031 8.173
ltoes -12.0271
310
root 3.46324 17.6878 -4.9761 -1.13595 -44.1998 3.97936
lowerback 15.0301 0.802414 0.287845
upperback 4.68574 1.07644 1.91894
thorax -3.49446 0.47971 1.66236
lowerneck -1.20748 -2.40266 -9.16133
upperneck 1.55429 -3.24215 10.1794
head 0.973176 -1.58512 4.50484
rclavicle -8.46823e-014 2.78299e-014
rhumerus -34.1694 44.3688 -98.454
rradius 44.7801
rwrist 5.39087
rhand -12.979 -14.0624
rfingers 7.12502
rthumb 13.1134 -43.6301
lclavicle -8.46823e-014 2.78299e-014
lhumerus -28.8922 -27.7102 92.9205
lradius 89.7459
lwrist -0.0847982
lhand -15.6955 33.419
lfingers 7.12502
lthumb 10.4939 63.137
rfemur -15.3894 3.27992 16.7417
rtibia 47.6655
rfoot -32.9513 -16.6559
rtoes -5.0743
lfemur -36.1344 -1.88998 -12.3363
ltibia 38.704
lfoot -15.001 8.11081
ltoes -12.1123
